<?xml version="1.0" encoding="UTF-8"?>
<svg width="88px" height="62px" viewBox="0 0 88 62" version="1.1" xmlns="http://www.w3.org/2000/svg" xmlns:xlink="http://www.w3.org/1999/xlink">
    <!-- Generator: Sketch 40.3 (33839) - http://www.bohemiancoding.com/sketch -->
    <title>HopeChannel-iso</title>
    <desc>Created with Sketch.</desc>
    <defs></defs>
    <g id="Page-1" stroke="none" stroke-width="1" fill="none" fill-rule="evenodd">
        <g id="HopeChannel-iso" transform="translate(-1.000000, 0.000000)" fill="#C1C1C1">
            <g id="HC-ISO">
                <g id="Iso">
                    <path d="M44.741,29.646 C38.818,29.633 34.027,24.758 34.04,18.759 C34.051,12.755 38.863,7.897 44.786,7.908 C50.708,7.922 55.502,12.796 55.487,18.801 C55.475,24.803 50.666,29.657 44.741,29.646 L44.741,29.646 Z M71.313,0.301 L5.348,0.303 C5.348,0.303 -0.09,0.001 1.169,5.77 L12.373,57.085 C12.373,57.085 13.633,62.857 18.974,61.684 L31.287,58.046 L31.339,57.412 C32.094,47.7 31.248,44.984 30.2,40.194 C28.201,31.054 16.137,17.539 15.054,16.568 C14.001,15.62 13.619,13.39 17.489,15.333 C33.449,23.349 44.373,37.984 45.399,37.952 C46.976,37.904 66.498,11.1 74.283,2.896 C74.718,2.435 75.136,2.055 75.525,1.748 C74.477,0.914 73.1,0.301 71.313,0.301 L71.313,0.301 Z" id="Fill-3"></path>
                    <path d="M78.477,6.227 C78.477,6.227 78.21,5.251 77.525,4.092 C67.758,23.587 61.831,36.472 60.801,49.328 L84.863,42.224 C84.863,42.224 90.202,41.048 88.478,35.424 L78.477,6.227" id="Fill-4"></path>
                </g>
            </g>
        </g>
    </g>
</svg>